<svg xmlns="http://www.w3.org/2000/svg" version="1.1" xmlns:xlink="http://www.w3.org/1999/xlink" xmlns:svgjs="http://svgjs.dev/svgjs" width="200" height="200"><svg t="1739715408524" class="icon" viewBox="0 0 1024 1024" version="1.1" xmlns="http://www.w3.org/2000/svg" p-id="22514" xmlns:xlink="http://www.w3.org/1999/xlink" width="200" height="200"><path d="M0 0m153.6 0l716.8 0q153.6 0 153.6 153.6l0 716.8q0 153.6-153.6 153.6l-716.8 0q-153.6 0-153.6-153.6l0-716.8q0-153.6 153.6-153.6Z" fill="#DDE2EE" p-id="22515"></path><path d="M217.6 782.848c0 13.056 10.496 23.552 23.552 23.552h541.696c13.056 0 23.552-10.496 23.552-23.552V473.6h-588.8v309.248z m565.248-512.256h-123.648V223.488c0-3.328-2.56-5.888-5.888-5.888h-41.216c-3.328 0-5.888 2.56-5.888 5.888v47.104h-188.416V223.488c0-3.328-2.56-5.888-5.888-5.888h-41.216c-3.328 0-5.888 2.56-5.888 5.888v47.104H241.152c-13.056 0-23.552 10.496-23.552 23.552v129.536h588.8v-129.536c0-13.056-10.496-23.552-23.552-23.552z" fill="#1B60C9" p-id="22516"></path><path d="M651.52 531.2l-156.416 215.552c-4.608 6.4-14.336 6.4-19.2 0l-92.928-128c-2.816-3.84 0-9.472 4.864-9.472h40.704c3.84 0 7.424 1.792 9.472 4.864l47.616 65.536 111.104-152.832c2.304-3.072 5.632-4.864 9.472-4.864h40.704c4.864 0 7.68 5.632 4.864 9.472z" fill="#FFFFFF" p-id="22517"></path></svg><style>@media (prefers-color-scheme: light) { :root { filter: none; } }
@media (prefers-color-scheme: dark) { :root { filter: none; } }
</style></svg>